<svg width="65" height="65" viewBox="0 0 65 65" fill="none" xmlns="http://www.w3.org/2000/svg">
<circle cx="32.5" cy="32.5" r="31.5" stroke="url(#paint0_linear_206_9263)" stroke-width="2" stroke-dasharray="2 2"/>
<path d="M26.4155 25.6926V24.5591L27.1704 21.1587H15.4691L8.29736 27.9595L15.4691 34.7604H27.1704L26.4155 30.2265H30.5675M26.4155 25.6926H30.5675V30.2265M26.4155 25.6926H23.0183L21.5085 27.9595H15.4691M30.5675 30.2265L30.945 22.2922C31.5741 20.7809 33.5872 20.403 35.0971 22.2922V29.093V20.4777C35.0971 19.9344 35.2272 19.3858 35.5874 18.9792C36.5234 17.9228 38.1267 17.1452 39.6266 19.6474M30.5675 30.2265C31.6999 31.8637 34.1157 35.1381 34.7196 35.1381V38.5386M39.6266 19.6474V23.8034M39.6266 19.6474C40.2557 18.6399 41.8914 17.2294 43.4012 19.6474M43.4012 19.6474V23.8034M43.4012 19.6474C43.7787 18.5139 46.3454 17.5317 47.5533 19.6474V20.7808M47.5533 23.8034V20.7808M47.5533 20.7808C48.1751 19.9509 49.3605 18.8475 50.7717 19.8359C51.4801 20.332 51.7053 21.2483 51.7053 22.1131V25.6925M51.7053 30.6043C51.3279 31.7378 50.3465 34.1559 49.4406 34.7604M51.7053 30.6043L49.4406 34.7604M51.7053 30.6043H55.4799L56.2349 29.093V26.4482L55.4799 25.6925H51.7053M51.7053 30.6043V25.6925M49.4406 34.7604V38.5386M49.4406 38.5386H34.7196M49.4406 38.5386L51.7053 39.672V42.6946L50.5729 43.8281L49.4406 43.8551M34.7196 38.5386L32.8323 39.672V42.6946L34.2478 43.8281M34.2478 43.8281V47.2285H49.4406V43.8551M34.2478 43.8281L49.4406 43.8551" stroke="url(#paint1_linear_206_9263)" stroke-width="1.5" stroke-linecap="round" stroke-linejoin="round"/>
<defs>
<linearGradient id="paint0_linear_206_9263" x1="-6.05359e-08" y1="32.5" x2="71.4549" y2="32.5" gradientUnits="userSpaceOnUse">
<stop stop-color="#1E2A5D"/>
<stop offset="0.372917" stop-color="#2A3976"/>
<stop offset="0.699396" stop-color="#3C509C"/>
<stop offset="1" stop-color="#495FBA"/>
</linearGradient>
<linearGradient id="paint1_linear_206_9263" x1="8.29736" y1="32.6035" x2="60.9953" y2="32.6035" gradientUnits="userSpaceOnUse">
<stop stop-color="#1E2A5D"/>
<stop offset="0.372917" stop-color="#2A3976"/>
<stop offset="0.699396" stop-color="#3C509C"/>
<stop offset="1" stop-color="#495FBA"/>
</linearGradient>
</defs>
</svg>
