<svg width="65" height="65" viewBox="0 0 65 65" fill="none" xmlns="http://www.w3.org/2000/svg">
<path d="M28.7771 37.9141L20.7485 26.0921C19.8117 24.7127 18.7762 22.8193 19.9078 21.5947C20.4418 21.0168 21.2489 20.8449 22.0203 20.904C23.1819 20.9931 24.047 21.8989 24.754 22.8249L30.9587 30.9521C30.6678 26.5551 33.9895 27.8986 35.6868 29.12C35.8858 26.7133 37.1179 26.2277 38.2644 26.3957C39.2642 26.5423 40.0163 27.3192 40.6604 28.0978L41.5059 29.12C41.0536 27.5251 42.0369 27.0075 42.9528 26.9134C43.4397 26.8634 43.9315 26.9918 44.3347 27.2693C47.7976 29.6527 50.4119 39.8126 51.3257 44.8762L38.96 52.2046L26.2312 43.0441C23.6126 40.699 25.1401 38.647 26.2312 37.9141M18.2299 25.4558L15.3204 27.6543M17.1388 21.4252H13.1382M18.2299 19.2266L16.4114 17.0281M21.5032 17.761V14.8296M24.7764 19.2266L26.2312 17.0281" stroke="url(#paint0_linear_206_9252)" stroke-width="1.5" stroke-linecap="round" stroke-linejoin="round"/>
<circle cx="32.5" cy="32.5" r="31.5" stroke="url(#paint1_linear_206_9252)" stroke-width="2" stroke-dasharray="2 2"/>
<defs>
<linearGradient id="paint0_linear_206_9252" x1="13.1382" y1="33.5171" x2="55.1179" y2="33.5171" gradientUnits="userSpaceOnUse">
<stop stop-color="#1E2A5D"/>
<stop offset="0.372917" stop-color="#2A3976"/>
<stop offset="0.699396" stop-color="#3C509C"/>
<stop offset="1" stop-color="#495FBA"/>
</linearGradient>
<linearGradient id="paint1_linear_206_9252" x1="-6.05359e-08" y1="32.5" x2="71.4549" y2="32.5" gradientUnits="userSpaceOnUse">
<stop stop-color="#1E2A5D"/>
<stop offset="0.372917" stop-color="#2A3976"/>
<stop offset="0.699396" stop-color="#3C509C"/>
<stop offset="1" stop-color="#495FBA"/>
</linearGradient>
</defs>
</svg>
