<svg width="65" height="65" viewBox="0 0 65 65" fill="none" xmlns="http://www.w3.org/2000/svg">
<circle cx="32.5" cy="32.5" r="31.5" stroke="url(#paint0_linear_206_9255)" stroke-width="2" stroke-dasharray="2 2"/>
<path d="M40.6576 15.2162L40.6362 15.209L40.6144 15.2032C37.9187 14.4816 35.3988 13.2521 33.1994 11.5867C32.9173 11.3376 32.5564 11.1967 32.1822 11.1841L32.1822 11.184L32.1698 11.1838C31.765 11.177 31.3689 11.3193 31.0628 11.5876C28.8866 13.2658 26.3763 14.4964 23.6864 15.2022L23.6618 15.2087L23.6377 15.2168C22.7139 15.5274 20.5709 15.9803 18.5852 16.363C17.6046 16.552 16.6807 16.7204 15.994 16.8415C15.6505 16.9021 15.3675 16.9506 15.1672 16.9839C15.0666 17.0005 14.9889 17.013 14.9354 17.0212C14.9225 17.0232 14.9117 17.0248 14.9028 17.0261H14.8891L14.8315 17.0351C14.4637 17.0928 14.124 17.275 13.8748 17.5561C13.6251 17.8377 13.4833 18.1999 13.4805 18.5793H13.4805V18.5848C13.4805 31.9007 13.6287 38.3208 18.013 44.832C19.9283 47.6791 23.2648 49.912 26.0882 51.4338C28.7702 52.8794 31.0885 53.7347 31.5113 53.8907C31.5373 53.9003 31.5561 53.9072 31.5674 53.9115L31.6327 53.9362L31.7015 53.9484C31.8591 53.9764 32.02 53.9803 32.1785 53.96H32.4132H32.5503L32.6786 53.9115C32.6906 53.9069 32.7114 53.8993 32.7406 53.8886C33.1793 53.7274 35.5049 52.8733 38.1902 51.4347C41.0301 49.9133 44.3852 47.6802 46.3012 44.832C50.6855 38.3208 50.8338 31.9007 50.8338 18.5848L50.8338 18.5793C50.831 18.1999 50.6891 17.8377 50.4394 17.5561C50.1916 17.2765 49.8541 17.0947 49.4886 17.0361L49.488 17.036L49.4733 17.0334L49.4152 17.0235L49.192 16.9848C48.9985 16.9512 48.7196 16.9024 48.3788 16.8417C47.6968 16.7204 46.7674 16.5518 45.7768 16.3627C43.7704 15.9798 41.5899 15.5269 40.6576 15.2162ZM14.8675 17.0308C14.8678 17.0307 14.8714 17.0303 14.8775 17.0296C14.8703 17.0306 14.8673 17.0309 14.8675 17.0308ZM24.6544 18.3556L24.6768 18.3501L24.6988 18.3432C27.3597 17.5081 29.8763 16.293 32.1652 14.7384C34.4776 16.2497 37.0092 17.4212 39.6775 18.2144L39.6942 18.2194L39.7111 18.2236C42.3374 18.8733 44.9949 19.3977 47.6742 19.7949C47.5964 33.0807 47.1745 37.7624 43.6227 43.0373L43.4948 43.2272V43.2878C42.0882 45.2626 39.657 46.9828 37.2922 48.308C35.1108 49.5305 33.066 50.3734 32.1232 50.7397C31.1844 50.3738 29.1555 49.5312 26.9898 48.3091C24.5695 46.9433 22.0761 45.1569 20.6916 43.1033C17.1404 37.8293 16.7178 33.1479 16.6889 19.9274C19.369 19.5302 22.0274 19.0057 24.6544 18.3556Z" stroke="url(#paint1_linear_206_9255)" stroke-width="1.5"/>
<path d="M32.4653 42.7234C37.8156 42.7234 42.1528 38.3861 42.1528 33.0359C42.1528 27.6856 37.8156 23.3484 32.4653 23.3484C27.115 23.3484 22.7778 27.6856 22.7778 33.0359C22.7778 38.3861 27.115 42.7234 32.4653 42.7234Z" stroke="url(#paint2_linear_206_9255)" stroke-width="1.5"/>
<path d="M27.5903 33.0359L31.2466 36.6921L37.3403 29.7859" stroke="url(#paint3_linear_206_9255)" stroke-width="1.5" stroke-linecap="round" stroke-linejoin="round"/>
<defs>
<linearGradient id="paint0_linear_206_9255" x1="-6.05359e-08" y1="32.5" x2="71.4549" y2="32.5" gradientUnits="userSpaceOnUse">
<stop stop-color="#1E2A5D"/>
<stop offset="0.372917" stop-color="#2A3976"/>
<stop offset="0.699396" stop-color="#3C509C"/>
<stop offset="1" stop-color="#495FBA"/>
</linearGradient>
<linearGradient id="paint1_linear_206_9255" x1="14.2305" y1="32.5782" x2="53.6442" y2="32.5782" gradientUnits="userSpaceOnUse">
<stop stop-color="#1E2A5D"/>
<stop offset="0.372917" stop-color="#2A3976"/>
<stop offset="0.699396" stop-color="#3C509C"/>
<stop offset="1" stop-color="#495FBA"/>
</linearGradient>
<linearGradient id="paint2_linear_206_9255" x1="23.5278" y1="33.0359" x2="43.1779" y2="33.0359" gradientUnits="userSpaceOnUse">
<stop stop-color="#1E2A5D"/>
<stop offset="0.372917" stop-color="#2A3976"/>
<stop offset="0.699396" stop-color="#3C509C"/>
<stop offset="1" stop-color="#495FBA"/>
</linearGradient>
<linearGradient id="paint3_linear_206_9255" x1="27.5903" y1="33.239" x2="38.3085" y2="33.239" gradientUnits="userSpaceOnUse">
<stop stop-color="#1E2A5D"/>
<stop offset="0.372917" stop-color="#2A3976"/>
<stop offset="0.699396" stop-color="#3C509C"/>
<stop offset="1" stop-color="#495FBA"/>
</linearGradient>
</defs>
</svg>
