<svg width="65" height="65" viewBox="0 0 65 65" fill="none" xmlns="http://www.w3.org/2000/svg">
<circle cx="32.5" cy="32.5" r="31.5" stroke="url(#paint0_linear_206_9246)" stroke-width="2" stroke-dasharray="2 2"/>
<path d="M35.7524 51.2048H26.4087V46.1452L25.463 44.3383M35.7524 51.2048V45.061L34.0277 41.5922C33.2712 40.0705 32.8774 38.3943 32.8774 36.6949V26.2682C33.3566 25.184 34.7462 23.6661 36.4712 26.2682M35.7524 51.2048H48.3306V45.061L50.1687 41.1331C50.8516 39.6737 51.2056 38.0821 51.2056 36.4708V21.57C49.7681 19.5462 48.2108 20.7268 47.6118 21.57M36.4712 26.2682V32.7735M36.4712 26.2682V17.5947C37.0701 16.6309 38.6993 15.2817 40.4243 17.5947M40.4243 17.5947V28.798M40.4243 17.5947V15.4262C41.0233 14.7034 42.5806 13.6915 44.0181 15.4262V16.8718M44.0181 28.798V16.8718M44.0181 16.8718C44.617 15.9081 46.1743 14.5589 47.6118 16.8718V21.57M47.6118 28.798V21.57M46.1743 48.675H42.2212M26.4087 26.2682C24.9712 24.2444 23.4139 25.425 22.8149 26.2682V27.3525M26.4087 26.2682V32.412M26.4087 26.2682V20.1245M30.3618 17.5947C28.9243 14.9926 27.1274 16.5105 26.4087 17.5947V20.1245M30.3618 17.5947V28.798M30.3618 17.5947V15.4262C30.9608 14.2215 32.5899 12.535 34.3149 15.4262M34.3149 15.4262V21.57M34.3149 15.4262C35.1535 14.7034 37.0462 13.6915 37.9087 15.4262M20.2993 20.1245H26.4087M17.7837 20.1245H13.8306M22.8149 27.3525H14.1899M22.8149 27.3525V33.3156M22.8149 33.3156V36.5741C22.8149 38.3507 23.2452 40.1008 24.069 41.6748L25.463 44.3383M22.8149 33.3156H19.2212M17.4243 33.3156H16.3462M19.5806 35.6647H14.1899M16.7056 41.8085H13.8306M14.1899 44.3383H25.463" stroke="url(#paint1_linear_206_9246)" stroke-width="1.5" stroke-linecap="round" stroke-linejoin="round"/>
<defs>
<linearGradient id="paint0_linear_206_9246" x1="-6.05359e-08" y1="32.5" x2="71.4549" y2="32.5" gradientUnits="userSpaceOnUse">
<stop stop-color="#1E2A5D"/>
<stop offset="0.372917" stop-color="#2A3976"/>
<stop offset="0.699396" stop-color="#3C509C"/>
<stop offset="1" stop-color="#495FBA"/>
</linearGradient>
<linearGradient id="paint1_linear_206_9246" x1="13.8306" y1="32.5173" x2="54.9171" y2="32.5173" gradientUnits="userSpaceOnUse">
<stop stop-color="#1E2A5D"/>
<stop offset="0.372917" stop-color="#2A3976"/>
<stop offset="0.699396" stop-color="#3C509C"/>
<stop offset="1" stop-color="#495FBA"/>
</linearGradient>
</defs>
</svg>
