<svg width="65" height="65" viewBox="0 0 65 65" fill="none" xmlns="http://www.w3.org/2000/svg">
<circle cx="32.5" cy="32.5" r="31.5" stroke="url(#paint0_linear_206_9249)" stroke-width="2" stroke-linejoin="round" stroke-dasharray="2 2"/>
<path d="M37.9944 49.1868H40.0033M40.0033 49.1868H42.0122V55.0598H22.6538V49.1868H23.5669M40.0033 49.1868V46.2502M40.0033 46.2502H24.4801M40.0033 46.2502C40.9129 46.2502 42.3714 40.6368 43.1969 36.8986C43.3867 36.0388 43.4732 35.1616 43.4732 34.2811V27.9134C43.4732 25.7578 42.5956 22.5563 40.6495 23.4833C40.1215 23.7348 39.7023 24.1962 39.4554 24.5932M24.4801 46.2502V49.1868M24.4801 46.2502C23.5061 43.6808 21.5581 37.9546 21.5581 35.6054C21.5581 33.6086 21.5581 26.8739 21.5581 22.3435C21.5581 20.9223 21.6555 19.212 22.9205 18.5642C23.6694 18.1807 24.6077 18.405 25.5758 20.1886V29.3652V17.0736C25.5758 15.2686 25.8957 12.8521 27.6944 12.6999C27.7524 12.695 27.811 12.6932 27.87 12.6946C29.6745 12.7383 29.9589 15.2686 29.9589 17.0736V28.2639V14.9903C29.9589 13.3424 30.1734 11.439 31.6065 10.6254C32.3549 10.2006 33.2234 10.2299 34.0535 11.3438C34.57 12.037 34.7071 12.9277 34.7071 13.792V14.3155M24.4801 49.1868H35.8029H23.5669M24.4801 49.1868H23.5669M34.7071 26.1561V14.3155M34.7071 14.3155C35.1205 13.6232 35.9316 12.7741 36.9286 12.6995C38.9667 12.547 39.4554 15.4113 39.4554 17.4551V24.5932M39.4554 31.2004V24.5932M28.4573 31.4973C26.2658 32.9656 24.3036 37.288 27.4021 42.0598C28.4573 43.6848 33.9294 45.8773 37.9944 42.0598C38.809 41.0593 39.8657 38.8688 39.2742 36.4835C38.821 34.6559 37.2601 33.1424 35.3809 33.0223C34.7704 32.9833 34.087 33.0461 33.3527 33.2726C32.2576 33.6102 31.2846 34.357 30.8253 35.407C30.6951 35.7048 30.5928 36.0268 30.5382 36.3638C30.168 38.6483 33.1057 40.2023 35.2649 39.3694C36.1072 39.0445 36.6932 38.4122 36.5334 37.288C36.1682 35.8197 34.9506 34.7473 32.9215 36.3723" stroke="url(#paint1_linear_206_9249)" stroke-width="1.5" stroke-linecap="round" stroke-linejoin="round"/>
<defs>
<linearGradient id="paint0_linear_206_9249" x1="-6.05359e-08" y1="32.5" x2="71.4549" y2="32.5" gradientUnits="userSpaceOnUse">
<stop stop-color="#1E2A5D"/>
<stop offset="0.372917" stop-color="#2A3976"/>
<stop offset="0.699396" stop-color="#3C509C"/>
<stop offset="1" stop-color="#495FBA"/>
</linearGradient>
<linearGradient id="paint1_linear_206_9249" x1="21.5581" y1="32.7161" x2="45.6495" y2="32.7161" gradientUnits="userSpaceOnUse">
<stop stop-color="#1E2A5D"/>
<stop offset="0.372917" stop-color="#2A3976"/>
<stop offset="0.699396" stop-color="#3C509C"/>
<stop offset="1" stop-color="#495FBA"/>
</linearGradient>
</defs>
</svg>
