<svg width="65" height="65" viewBox="0 0 65 65" fill="none" xmlns="http://www.w3.org/2000/svg">
<circle cx="32.5" cy="32.5" r="31.5" stroke="url(#paint0_linear_206_9216)" stroke-width="2" stroke-dasharray="2 2"/>
<path d="M21.8085 32.4521L18.1906 36.0054C16.8448 37.3272 15.8392 39.0457 15.8984 40.9311C16.0538 45.8863 19.2649 48.1437 22.3619 48.9915C24.5606 49.5935 26.7673 48.5168 28.3792 46.9049L30.7458 44.5383M21.8085 32.4521L19.4859 30.2384C16.7861 27.6653 14.6686 24.1001 15.8104 20.5496C16.715 17.7367 18.7861 15.2879 22.9319 15.2146C25.422 15.1705 27.6671 16.5397 29.5561 18.1629L33.1838 21.28M21.8085 32.4521L33.1838 21.28M33.1838 21.28L34.4025 20.083M43.34 31.9441L46.9519 28.3321C48.3004 26.9837 49.2829 25.2354 49.2459 23.3287C49.1291 17.3213 45.0485 15.5923 41.5367 15.4787C39.7884 15.4222 38.2062 16.3473 36.9582 17.573L34.4025 20.083M43.34 31.9441L47.6475 36.56C48.5635 37.5416 49.4358 38.6185 49.7196 39.9308C50.6014 44.009 48.3305 49.3368 41.5806 48.7123C39.7614 48.544 38.108 47.656 36.6155 46.6023L31.965 43.3191M43.34 31.9441L31.965 43.3191M31.965 43.3191L30.7458 44.5383M34.4025 20.083L40.4963 26.257M42.1213 27.4758L43.34 28.6945M22.215 35.6008L23.4338 36.8195M24.6525 38.0383L30.7458 44.5383M31.2258 28.4597L28.3152 31.734C27.2433 32.9398 26.2707 34.4054 26.4847 36.0044C26.6707 37.3947 27.4536 38.2418 28.4274 38.7291C30.5213 39.7768 32.847 38.326 34.4572 36.6263L37.1755 33.757C38.5456 32.3109 39.7759 30.4156 39.205 28.5071C38.723 26.8956 37.4569 26.2176 36.1029 26.0306C34.1972 25.7674 32.5039 27.0218 31.2258 28.4597Z" stroke="url(#paint1_linear_206_9216)" stroke-width="1.5" stroke-linecap="round" stroke-linejoin="round"/>
<path d="M30.0616 35.3442C30.3866 35.0192 33.447 31.688 34.9366 30.063" stroke="url(#paint2_linear_206_9216)" stroke-width="1.5" stroke-linecap="round" stroke-linejoin="round"/>
<defs>
<linearGradient id="paint0_linear_206_9216" x1="-6.05359e-08" y1="32.5" x2="71.4549" y2="32.5" gradientUnits="userSpaceOnUse">
<stop stop-color="#1E2A5D"/>
<stop offset="0.372917" stop-color="#2A3976"/>
<stop offset="0.699396" stop-color="#3C509C"/>
<stop offset="1" stop-color="#495FBA"/>
</linearGradient>
<linearGradient id="paint1_linear_206_9216" x1="15.2135" y1="32.3162" x2="53.3458" y2="32.3161" gradientUnits="userSpaceOnUse">
<stop stop-color="#1E2A5D"/>
<stop offset="0.372917" stop-color="#2A3976"/>
<stop offset="0.699396" stop-color="#3C509C"/>
<stop offset="1" stop-color="#495FBA"/>
</linearGradient>
<linearGradient id="paint2_linear_206_9216" x1="30.0616" y1="32.7036" x2="35.4207" y2="32.7036" gradientUnits="userSpaceOnUse">
<stop stop-color="#1E2A5D"/>
<stop offset="0.372917" stop-color="#2A3976"/>
<stop offset="0.699396" stop-color="#3C509C"/>
<stop offset="1" stop-color="#495FBA"/>
</linearGradient>
</defs>
</svg>
